<svg xmlns="http://www.w3.org/2000/svg" viewBox="0 0 405.06 507.79"><defs><style>.cls-1{fill:#cbac79;}</style></defs><g id="Layer_2" data-name="Layer 2"><g id="Layer_1-2" data-name="Layer 1"><path class="cls-1" d="M202.57,351.76a46.68,46.68,0,0,1-35.3-16.54,45.3,45.3,0,0,1-10.7-36.32c1.26-8.21,6-18.73,11.12-24.48,4.82-5.48,13.89-11.32,20.66-13.3l7.24-2.12V124.19c0-61.11,0-91.78.55-107.36.51-14.49,1.43-15,2.82-15.81l.34-.19A7.34,7.34,0,0,1,202.39,0c1.79,0,7.2,0,7.2,13.5V22l84.1.2,81.18.3,1.81,2.1a8.74,8.74,0,0,1,1.91,4.13c-.62,2.95-14.25,22.56-18.74,29-5.2,7.55-9.92,14.58-13.3,19.8-6,9.34-5.87,9.71-5.39,10.83s9.54,14.31,15.6,23l.53.76c21.1,30.23,21.49,30.86,21,33.64l-.06.31c-.07.37-.12.75-.17,1.1-.27,1.85-.36,2.47-6.51,3.05-7.55.72-22.73.79-53.18.79H209.59V259l7.24,2.12c6.78,2,15.85,7.82,20.66,13.3,5,5.76,9.89,16.35,11.13,24.1a45.48,45.48,0,0,1-8.56,34,46.42,46.42,0,0,1-30.57,18.69,44.68,44.68,0,0,1-6.91.54Zm.12-79.79a32.86,32.86,0,0,0-29.15,16.88c-7.65,14-5.21,29.64,6.37,40.79,6.16,6.06,13,8.76,22.18,8.76h.53c10.49,0,17.32-3,24.35-10.65,9.66-10.51,11.73-24.39,5.52-37.13-4.06-8.12-9.91-13.51-17.9-16.49A33.48,33.48,0,0,0,202.69,272Zm6.9-134H359.73l-5.82-8c-1.7-2.32-7.66-10.85-14-19.87l-2.1-3c-8.29-11.94-12.24-18-12.24-20.35s4.4-9,14.25-23.16C347.24,53,355.1,41.7,356,40.25L359.58,35h-150Z"/><path class="cls-1" d="M202.64,507.79A201.62,201.62,0,0,1,47.33,435.22C17.59,399.6,1.25,356.51.07,310.61S13,220.71,40.9,183.4c6.86-9.19,23.86-26.88,33.67-35.06A208.44,208.44,0,0,1,158,107.55a95.12,95.12,0,0,1,13.25-2.45h.46c1.11,0,1.14.08,1.3.49.48,1.18.68,3.9.85,7.9l.14,4.19-7.34,1.47c-37.4,7.4-67.72,23.26-95.39,49.92A180.23,180.23,0,0,0,43.93,201.9a198.62,198.62,0,0,0-27.2,66.21C-3.29,367.79,58.6,465,157.62,489.34A189.55,189.55,0,0,0,203,494.88c89.44,0,167.49-64.3,185.57-152.88,10.47-51-2-106.7-33.25-149l-4.86-6.56,4.71-3.79c2.33-1.93,4.25-3.39,5.36-4.18.69.75,1.81,2.05,3.31,4,20,26.2,34,59.55,39.4,93.87,3.56,22.45,1.85,54.65-4.16,78.3-20.38,81.21-89.78,142.22-172.7,151.8a204.8,204.8,0,0,1-23.72,1.38Z"/><path class="cls-1" d="M202.59,439.5c-25.63,0-38.66-3-60.61-13.79-39.75-19.73-67.88-59.56-73.4-104a135.75,135.75,0,0,1,97-146.23,49.42,49.42,0,0,1,6.8-1.69c.81,2.65,2.39,9.34,2.91,12.28l-4.68,1.49-3.1,1a122.4,122.4,0,0,0-76.84,69,120.49,120.49,0,0,0,2.77,101.64c6.7,13.42,11.9,20.55,23.17,31.82,23.78,23.88,52.72,36,86,36,32.55,0,60.88-11.46,84.2-34.06,28.91-27.81,42.48-67.53,36.28-106.26a122.86,122.86,0,0,0-85.39-98.19c-3.9-1.2-6.37-2-7.75-2.4.52-2.93,2.09-9.58,2.9-12.24a72,72,0,0,1,7.12,1.67,135.18,135.18,0,0,1,79.5,62.7A133.42,133.42,0,0,1,333.55,338c-9.6,37.92-36.16,70.85-71,88.1C241.24,436.5,227.8,439.5,202.59,439.5Z"/></g></g></svg>