<svg width="49" height="50" viewBox="0 0 49 50" fill="none" xmlns="http://www.w3.org/2000/svg">
<g clip-path="url(#clip0_105_107)">
<path d="M24.0892 50C22.1959 50 20.578 49.6855 19.1471 49.0387C14.5098 46.9599 12.0528 43.4043 11.8445 38.4699C11.7269 35.7503 11.7598 32.9691 11.7916 30.2779V30.2637C11.8045 29.1853 11.8175 28.0702 11.821 26.9729C11.821 26.8547 11.8281 26.7293 11.8422 26.5827L11.861 26.3923L12.0222 26.494C12.7741 26.967 13.2801 27.7947 13.2801 28.5551V38.075C13.2784 39.5647 13.603 41.0366 14.2309 42.3862L14.7239 43.4386L15.4299 42.5163C15.5923 42.3034 15.7535 42.1048 15.9088 41.912C16.2428 41.5186 16.5495 41.1026 16.8267 40.6669C17.513 39.5421 17.8744 38.2475 17.8704 36.928C17.8822 34.3597 17.8822 31.7524 17.8704 29.1794C17.8445 25.016 14.4215 21.5951 10.2407 21.5561H9.93946C8.50742 21.5561 6.99772 21.6614 5.60687 22.4252C2.93459 23.8855 1.5402 26.1842 1.46254 29.2468C1.40959 31.5337 1.40959 33.9293 1.46254 36.7873C1.5402 40.4943 3.89124 43.4433 7.4531 44.2982L7.53547 44.3183H7.55077C7.59207 44.3244 7.63375 44.3276 7.6755 44.3278H7.71551H7.75551C7.83788 44.3195 7.9179 44.3148 7.99085 44.3148C8.5439 44.3148 8.96869 44.5394 9.377 45.664C9.39583 45.7195 9.41701 45.7727 9.43937 45.826L9.50997 45.9915H9.33111C7.53077 45.9785 6.09167 45.6249 4.80436 44.8776C1.68141 43.0697 0.0693321 40.3488 0.0152041 36.7861C-0.00832987 35.1188 -9.29919e-05 33.409 0.00814388 31.7571C0.00814388 30.9105 0.0152041 30.0698 0.0152041 29.2291C0.0145416 26.8049 0.968777 24.479 2.66939 22.7596C4.37001 21.0403 6.67873 20.0673 9.09106 20.0532H9.39936C10.6066 20.0532 11.8975 20.1123 13.1577 20.538H13.1766C13.2655 20.5648 13.3579 20.5783 13.4507 20.5782C13.6488 20.5704 13.8432 20.5219 14.0219 20.4357C14.2006 20.3495 14.3598 20.2273 14.4897 20.0769C16.5701 17.5937 19.153 16.1689 22.1677 15.8354C23.0098 15.7415 23.8562 15.6929 24.7035 15.69C28.0041 15.69 30.5458 16.5236 32.705 18.3138C33.2821 18.7862 33.8153 19.3102 34.2983 19.8794C34.5442 20.1691 34.9501 20.5546 35.6091 20.5546C35.8013 20.5523 35.9925 20.5269 36.1786 20.4789C37.302 20.1993 38.4538 20.0517 39.611 20.039C42.1045 20.039 44.2002 20.8372 46.0146 22.4796C47.9503 24.2273 48.9493 26.4444 48.9811 29.0682C49.0187 31.8742 49.0023 34.6695 48.9811 37.0344C48.9375 41.6543 45.1698 45.6521 40.5818 45.9466C40.3724 45.9596 40.1394 45.9655 39.8699 45.9655H39.6546H39.4663L39.5499 45.7964C39.744 45.4085 39.9535 44.99 40.1794 44.5714L40.2065 44.5205L40.2641 44.5111L40.3324 44.5016C43.9119 44.1847 46.6724 41.7441 47.3678 38.2843C47.4738 37.7539 47.5219 37.2135 47.5114 36.6726C47.5231 34.2391 47.5231 31.7737 47.5114 29.3414C47.5114 25.0325 44.099 21.6058 39.7558 21.5372H39.5546C38.0143 21.5372 35.7409 21.7288 33.804 23.3866C32.0261 24.9237 31.1118 26.9162 31.0847 29.3236C31.0612 31.7808 31.0612 34.2722 31.0847 36.7282C31.1118 39.0198 31.9507 40.9081 33.6511 42.5021L34.3453 43.1524L34.7654 42.2975C35.3406 41.1336 35.6509 39.8556 35.6738 38.5562C35.6974 36.3344 35.7009 34.0866 35.7032 31.9132V31.8872C35.7032 30.7773 35.7052 29.6658 35.7091 28.5527C35.7091 27.7888 36.1986 26.9824 36.9541 26.4976L37.1164 26.3935L37.1341 26.5863C37.1576 26.844 37.1682 27.0593 37.1682 27.2496C37.18 30.9377 37.18 34.6766 37.1682 38.3647C37.1459 43.9943 32.6062 49.125 27.0486 49.7954C26.0672 49.9235 25.0789 49.9918 24.0892 50ZM16.003 44.9758C17.6339 47.1881 20.7839 48.5089 24.4281 48.5089C28.1936 48.5089 31.513 47.09 33.0945 44.8055L33.471 44.2604L32.7968 43.7188C30.7423 41.8647 29.7197 39.6985 29.6668 37.09C29.6232 34.6813 29.6079 32.1734 29.6197 29.4218C29.6432 26.3853 30.7529 23.9896 33.0133 22.1L33.0427 22.0764L33.0616 22.0563C33.1676 21.9508 33.2559 21.8286 33.3228 21.6945L33.5193 21.3007L33.2534 20.946C31.4565 18.5645 28.19 17.1456 24.5152 17.1456C20.7698 17.1456 17.4856 18.5846 15.7312 20.9968L15.357 21.5112L15.8277 21.9404L15.9971 22.1C16.0689 22.1698 16.1348 22.2325 16.2042 22.2952C18.3317 24.2095 19.3613 26.513 19.3495 29.3355V36.9032C19.3495 38.5586 18.9553 40.0237 18.1728 41.2522C17.7194 41.9461 17.2264 42.6129 16.6961 43.2494C16.4701 43.5308 16.2371 43.8229 16.0089 44.1209L15.6829 44.5454L16.003 44.9758Z" fill="#CBAC79"/>
<path d="M24.874 11.77C23.7593 11.77 22.7547 11.5207 21.86 11.022C20.98 10.5087 20.2833 9.812 19.77 8.932C19.2567 8.03733 19 7.018 19 5.874C19 4.71533 19.2567 3.696 19.77 2.816C20.2833 1.936 20.98 1.24667 21.86 0.748C22.74 0.249333 23.7447 0 24.874 0C26.018 0 27.03 0.249333 27.91 0.748C28.8047 1.24667 29.5013 1.936 30 2.816C30.5133 3.696 30.77 4.71533 30.77 5.874C30.77 7.018 30.5133 8.03733 30 8.932C29.5013 9.812 28.8047 10.5087 27.91 11.022C27.0153 11.5207 26.0033 11.77 24.874 11.77ZM24.874 10.384C25.71 10.384 26.4507 10.2007 27.096 9.834C27.7413 9.45267 28.2473 8.92467 28.614 8.25C28.9953 7.56067 29.186 6.76867 29.186 5.874C29.186 4.96467 28.9953 4.17267 28.614 3.498C28.2473 2.82333 27.7413 2.30267 27.096 1.936C26.4507 1.55467 25.7173 1.364 24.896 1.364C24.0747 1.364 23.3413 1.55467 22.696 1.936C22.0507 2.30267 21.5373 2.82333 21.156 3.498C20.7747 4.17267 20.584 4.96467 20.584 5.874C20.584 6.76867 20.7747 7.56067 21.156 8.25C21.5373 8.92467 22.0507 9.45267 22.696 9.834C23.3413 10.2007 24.0673 10.384 24.874 10.384Z" fill="#CBAC79"/>
<path d="M39.4916 16C38.6393 16 37.871 15.8093 37.1869 15.428C36.514 15.0355 35.9813 14.5028 35.5888 13.8299C35.1963 13.1458 35 12.3664 35 11.4916C35 10.6056 35.1963 9.82617 35.5888 9.15327C35.9813 8.48037 36.514 7.95327 37.1869 7.57196C37.8598 7.19065 38.628 7 39.4916 7C40.3664 7 41.1402 7.19065 41.8131 7.57196C42.4972 7.95327 43.0299 8.48037 43.4112 9.15327C43.8037 9.82617 44 10.6056 44 11.4916C44 12.3664 43.8037 13.1458 43.4112 13.8299C43.0299 14.5028 42.4972 15.0355 41.8131 15.428C41.129 15.8093 40.3551 16 39.4916 16ZM39.4916 14.9402C40.1308 14.9402 40.6972 14.8 41.1907 14.5196C41.6841 14.228 42.071 13.8243 42.3514 13.3084C42.643 12.7813 42.7888 12.1757 42.7888 11.4916C42.7888 10.7963 42.643 10.1907 42.3514 9.67477C42.071 9.15888 41.6841 8.76075 41.1907 8.48037C40.6972 8.18878 40.1364 8.04299 39.5084 8.04299C38.8804 8.04299 38.3196 8.18878 37.8262 8.48037C37.3327 8.76075 36.9402 9.15888 36.6486 9.67477C36.357 10.1907 36.2112 10.7963 36.2112 11.4916C36.2112 12.1757 36.357 12.7813 36.6486 13.3084C36.9402 13.8243 37.3327 14.228 37.8262 14.5196C38.3196 14.8 38.8748 14.9402 39.4916 14.9402Z" fill="#CBAC79"/>
<path d="M8.49159 16C7.63925 16 6.87103 15.8093 6.18692 15.428C5.51402 15.0355 4.98131 14.5028 4.58878 13.8299C4.19626 13.1458 4 12.3664 4 11.4916C4 10.6056 4.19626 9.82617 4.58878 9.15327C4.98131 8.48037 5.51402 7.95327 6.18692 7.57196C6.85981 7.19065 7.62804 7 8.49159 7C9.36636 7 10.1402 7.19065 10.8131 7.57196C11.4972 7.95327 12.0299 8.48037 12.4112 9.15327C12.8037 9.82617 13 10.6056 13 11.4916C13 12.3664 12.8037 13.1458 12.4112 13.8299C12.0299 14.5028 11.4972 15.0355 10.8131 15.428C10.129 15.8093 9.35514 16 8.49159 16ZM8.49159 14.9402C9.13084 14.9402 9.6972 14.8 10.1907 14.5196C10.6841 14.228 11.071 13.8243 11.3514 13.3084C11.643 12.7813 11.7888 12.1757 11.7888 11.4916C11.7888 10.7963 11.643 10.1907 11.3514 9.67477C11.071 9.15888 10.6841 8.76075 10.1907 8.48037C9.6972 8.18878 9.13645 8.04299 8.50841 8.04299C7.88037 8.04299 7.31963 8.18878 6.82617 8.48037C6.33271 8.76075 5.94019 9.15888 5.6486 9.67477C5.35701 10.1907 5.21121 10.7963 5.21121 11.4916C5.21121 12.1757 5.35701 12.7813 5.6486 13.3084C5.94019 13.8243 6.33271 14.228 6.82617 14.5196C7.31963 14.8 7.87477 14.9402 8.49159 14.9402Z" fill="#CBAC79"/>
</g>
<defs>
<clipPath id="clip0_105_107">
<rect width="49" height="50" fill="white"/>
</clipPath>
</defs>
</svg>
