<svg width="49" height="56" viewBox="0 0 49 56" fill="none" xmlns="http://www.w3.org/2000/svg">
<g clip-path="url(#clip0_105_70)">
<path d="M28.2034 49.7112C28.6753 51.5858 28.2999 53.1354 26.7556 54.284C25.5008 55.2159 23.7313 55.2484 22.4122 54.3923C20.9215 53.4279 20.4174 51.9759 20.8035 49.7112C20.6963 49.6354 20.5783 49.5487 20.4603 49.4837C16.074 46.9264 11.677 44.3691 7.29072 41.801C7.02261 41.6385 6.86174 41.6276 6.60435 41.866C5.37104 43.0471 3.64441 43.318 2.18588 42.592C0.780979 41.8985 -0.0984263 40.3815 0.00881823 38.8428C0.137512 37.0657 1.15633 35.7762 2.86152 35.2669C3.16181 35.1803 3.2476 35.0394 3.2476 34.736C3.23688 29.5781 3.23688 24.4094 3.2476 19.2406C3.2476 18.9481 3.18326 18.7964 2.88297 18.6988C1.11344 18.1354 0.105338 16.8567 0.00881823 15.0796C-0.0662529 13.4868 0.834601 12.0022 2.27168 11.3304C3.80527 10.6152 5.46756 10.962 6.78667 12.2623C6.84029 12.3056 6.89391 12.349 6.97971 12.4248L20.8142 4.36292C20.3209 2.3366 20.7606 0.635366 22.616 -0.448225C24.0209 -1.26092 25.4901 -1.17423 26.7985 -0.198999C28.3214 0.927936 28.6645 2.48831 28.1927 4.34125L42.0594 12.4357C43.4321 10.9945 45.0301 10.5286 46.8318 11.3846C48.2903 12.0781 49.0517 13.3242 49.0088 14.9496C48.9552 17.0518 47.7648 18.2762 45.7808 18.8397V19.4465C45.7808 24.4852 45.7808 29.5239 45.77 34.5626C45.77 34.9744 45.8344 35.1803 46.2955 35.3103C47.8613 35.7654 48.8801 37.1416 49.0088 38.832C49.1268 40.3707 48.2581 41.8769 46.8532 42.5812C45.4161 43.2964 43.6895 43.0471 42.5205 41.9419C42.1881 41.6276 41.9843 41.6385 41.6197 41.8552C37.3299 44.3799 33.0294 46.883 28.7289 49.3861C28.5573 49.4837 28.3964 49.592 28.2034 49.7112ZM44.4509 18.8289C44.3544 18.7855 44.3008 18.7747 44.2472 18.753C41.9521 18.0162 40.944 16.3474 41.3623 13.931C41.4159 13.6168 41.2658 13.5193 41.062 13.4001C36.665 10.8428 32.2787 8.27468 27.8924 5.71741C27.6028 5.54403 27.4527 5.58738 27.2167 5.8041C25.6402 7.29945 23.3774 7.29945 21.8009 5.78242C21.5435 5.5332 21.3826 5.57654 21.1253 5.72824C16.7497 8.28552 12.3741 10.832 7.98781 13.3784C7.68752 13.5518 7.62318 13.7251 7.69825 14.0611C8.14867 16.109 7.01188 18.0595 5.02786 18.6772C4.87772 18.7205 4.72758 18.7747 4.58816 18.8289V35.1044C7.22637 35.8304 8.25592 38.0626 7.61245 40.414C7.69825 40.4682 7.78404 40.5332 7.86984 40.5874C12.3098 43.1772 16.7497 45.7669 21.1789 48.3567C21.5113 48.5518 21.64 48.4001 21.8438 48.205C23.3345 46.7638 25.6939 46.7638 27.1846 48.2159C27.4634 48.4868 27.635 48.4868 27.9567 48.3025C30.7451 46.6555 33.5442 45.0301 36.3433 43.3939L41.4266 40.4248C40.9333 37.575 41.5339 36.5131 44.4509 35.0936V18.8289ZM47.7004 39.0704C47.7112 37.6292 46.5636 36.4589 45.1373 36.4481C45.1373 36.4481 45.1373 36.4481 45.1266 36.4481C43.7217 36.4697 42.5742 37.6075 42.542 39.027C42.5205 40.4465 43.7217 41.6601 45.1266 41.6601C46.5315 41.6385 47.679 40.5007 47.7004 39.0704ZM3.89107 17.5069C5.31742 17.5069 6.47566 16.3474 6.48638 14.8954C6.48638 13.5084 5.29597 12.3056 3.92324 12.2948C2.51834 12.3056 1.37082 13.4434 1.33865 14.8629C1.3172 16.2933 2.44327 17.4744 3.8589 17.5069C3.86962 17.5069 3.88034 17.5069 3.89107 17.5069ZM45.1373 17.5069C46.5636 17.496 47.7112 16.3258 47.7004 14.8954C47.6897 13.4543 46.5315 12.2948 45.1158 12.3056C43.7324 12.3165 42.5527 13.5084 42.542 14.8954C42.5527 16.3474 43.7109 17.5069 45.1373 17.5069ZM1.33865 39.027C1.33865 40.4465 2.45399 41.6168 3.8589 41.6493C5.28525 41.6601 6.45421 40.5007 6.48638 39.0595C6.50783 37.6617 5.33887 36.4589 3.95542 36.4372C2.53979 36.4264 1.3601 37.575 1.33865 39.027ZM24.5249 5.57654C25.9298 5.56571 27.0773 4.42794 27.0988 2.99759C27.1095 1.55642 25.962 0.38614 24.5464 0.375304C23.12 0.364468 21.9618 1.52391 21.951 2.95425C21.951 4.40626 23.0986 5.57654 24.5249 5.57654ZM27.0988 51.0549C27.0881 49.6137 25.9298 48.4651 24.5142 48.4651C23.0878 48.4759 21.951 49.6462 21.951 51.0765C21.9618 52.4852 23.1415 53.6772 24.5142 53.6663C25.9405 53.6663 27.0988 52.496 27.0988 51.0549Z" fill="#CBAC79"/>
<path d="M11.9344 27.0317C11.9666 19.6091 18.219 13.7577 25.5652 14.397C26.8414 14.5053 28.0962 14.9605 29.3402 15.318C29.9193 15.4806 30.1017 15.8707 29.9408 16.2716C29.7799 16.6725 29.4046 16.7592 28.8469 16.5317C22.2299 13.8552 15.0767 17.6586 13.5217 24.6803C12.1704 30.7917 16.3207 37.0874 22.4337 38.1818C28.7826 39.3196 34.7024 35.0611 35.6569 28.6354C35.9143 26.8908 35.732 25.1896 35.2387 23.4992C35.1743 23.2174 35.2387 22.9248 35.4103 22.6865C35.5282 22.5456 35.925 22.5239 36.1181 22.6214C36.3111 22.719 36.4398 23.0007 36.5042 23.2283C37.5659 26.8258 37.2012 30.2716 35.3137 33.5007C32.5897 38.1601 27.324 40.5007 21.994 39.4605C16.9642 38.4744 12.9318 34.2159 12.1168 29.0146C12.0095 28.3645 11.9881 27.6927 11.9344 27.0317Z" fill="#CBAC79"/>
<path d="M23.5812 29.5022C24.3319 28.6679 25.0504 27.8768 25.769 27.075C28.3214 24.2251 30.8738 21.3753 33.4262 18.5254C33.5656 18.3629 33.6943 18.1245 33.8767 18.0812C34.134 18.0162 34.5201 17.9728 34.681 18.1245C34.8419 18.2762 34.8419 18.6555 34.8097 18.9264C34.7882 19.0889 34.5845 19.2406 34.445 19.3815C31.0132 23.2066 27.5814 27.0316 24.1603 30.8567C23.667 31.4093 23.2809 31.3985 22.8519 30.8134C21.3076 28.6679 19.7633 26.5224 18.219 24.3768C17.8758 23.9001 17.8972 23.5425 18.2404 23.2824C18.5836 23.0223 18.9589 23.1199 19.3129 23.6183C20.6212 25.4279 21.9189 27.2375 23.2166 29.0471C23.3345 29.188 23.4418 29.318 23.5812 29.5022Z" fill="#CBAC79"/>
</g>
<defs>
<clipPath id="clip0_105_70">
<rect width="49" height="56" fill="white"/>
</clipPath>
</defs>
</svg>
